# xmcd CD database file
#
# Track frame offsets:
#	150
#	16628
#	33783
#	50248
#
# Disc length: 896 seconds
#
# Revision: 1
# Processed by: cddbd v1.5.1PL2 Copyright (c) Steve Scherf et al.
# Submitted via: CDex 1.51
#
DISCID=25037e04
DTITLE=ルーラ - 結婚ワルツ
DYEAR=1993
DGENRE=Game
TTITLE0=結婚ワルツ
TTITLE1=この道わが旅
TTITLE2=結婚ワルツ(オリジナル・カラオケ)
TTITLE3=この道わが旅(オリジナル・カラオケ)
EXTD=YEAR: 1993
EXTT0=
EXTT1=
EXTT2=
EXTT3=
PLAYORDER=
